<svg xmlns="http://www.w3.org/2000/svg" viewBox="0 0 300 420" width="300" height="420">
  <defs>
    <linearGradient id="bg" x1="0" y1="0" x2="0" y2="1">
      <stop offset="0" stop-color="#16130e"/><stop offset="1" stop-color="#0A0908"/>
    </linearGradient>
    <linearGradient id="glass" x1="0" y1="0" x2="1" y2="0">
      <stop offset="0" stop-color="#b98f3e"/><stop offset="0.45" stop-color="#d9b35a"/>
      <stop offset="0.55" stop-color="#d9b35a"/><stop offset="1" stop-color="#b98f3e"/>
    </linearGradient>
  </defs>
  <rect width="300" height="420" fill="url(#bg)"/>
  <ellipse cx="150" cy="392" rx="78" ry="12" fill="#000" opacity="0.55"/>
  <g>
    <rect x="132" y="58" width="36" height="78" rx="4" fill="url(#glass)"/>
    <path d="M132 130 q-26 26 -26 70 v140 q0 30 44 30 t44 -30 v-140 q0 -44 -26 -70 z" fill="url(#glass)"/>
    <rect x="128" y="48" width="44" height="14" rx="3" fill="#C9A84C"/>
    <rect x="112" y="210" width="76" height="96" rx="3" fill="#FAF0D0" opacity="0.96"/>
    <rect x="112" y="210" width="76" height="96" rx="3" fill="none" stroke="#C9A84C" stroke-width="1"/>
    <text x="150" y="244" text-anchor="middle" font-family="Georgia,serif" font-size="13"
          font-weight="700" letter-spacing="1" fill="#3a2f12">TAM</text>
    <line x1="124" y1="252" x2="176" y2="252" stroke="#C9A84C" stroke-width="0.7"/>
    <text x="150" y="272" text-anchor="middle" font-family="Georgia,serif" font-size="8.5"
          letter-spacing="1.5" fill="#5a4a1e">Champagne</text>
    <text x="150" y="290" text-anchor="middle" font-family="Georgia,serif" font-size="7"
          letter-spacing="2" fill="#7a6526">GRAND VIN</text>
    <ellipse cx="138" cy="170" rx="7" ry="42" fill="#fff" opacity="0.16"/>
  </g>
</svg>